<?xml version="1.0" encoding="UTF-8"?>
<!DOCTYPE svg PUBLIC "-//W3C//DTD SVG 1.1//EN" "http://www.w3.org/Graphics/SVG/1.1/DTD/svg11.dtd">
<svg xmlns="http://www.w3.org/2000/svg" version="1.1" width="233px" height="204px" style="shape-rendering:geometricPrecision; text-rendering:geometricPrecision; image-rendering:optimizeQuality; fill-rule:evenodd; clip-rule:evenodd" xmlns:xlink="http://www.w3.org/1999/xlink">
<g><path style="opacity:1" fill="#f3d233" d="M 45.5,2.5 C 46.5,2.5 47.5,2.5 48.5,2.5C 48.4208,3.93047 48.7542,5.26381 49.5,6.5C 51.5,7.16667 53.5,7.83333 55.5,8.5C 53.1243,11.2974 51.9576,14.6308 52,18.5C 50.414,17.624 48.914,16.624 47.5,15.5C 45.677,16.7472 43.677,17.4139 41.5,17.5C 41.2606,15.5328 41.5939,13.6995 42.5,12C 36.9961,8.74128 37.6627,7.07461 44.5,7C 45.3802,5.64387 45.7135,4.14387 45.5,2.5 Z"/></g>
<g><path style="opacity:1" fill="#f4d235" d="M 174.5,2.5 C 175.5,2.5 176.5,2.5 177.5,2.5C 177.834,6.64799 180.167,8.31466 184.5,7.5C 184.5,8.5 184.5,9.5 184.5,10.5C 183.5,10.5 182.5,10.5 181.5,10.5C 181.318,12.5914 181.652,14.5914 182.5,16.5C 180.276,17.7801 178.276,17.4468 176.5,15.5C 174.587,16.373 172.753,17.373 171,18.5C 170.242,16.2305 170.409,14.0639 171.5,12C 165.996,8.74128 166.663,7.07461 173.5,7C 174.38,5.64387 174.714,4.14387 174.5,2.5 Z"/></g>
<g><path style="opacity:1" fill="#f9d32a" d="M 126.5,62.5 C 126.182,64.8184 124.848,66.1517 122.5,66.5C 120.913,65.6376 119.246,64.9709 117.5,64.5C 114.933,65.8384 112.266,66.3384 109.5,66C 110.579,65.044 111.745,64.2106 113,63.5C 113.591,62.5165 113.257,61.8499 112,61.5C 109.694,62.8062 107.694,64.4729 106,66.5C 104.951,64.8934 103.451,64.2267 101.5,64.5C 101.789,61.3508 101.289,58.3508 100,55.5C 99.8236,58.8818 99.3236,62.2152 98.5,65.5C 95.7081,66.6473 92.8748,67.6473 90,68.5C 88.5531,68.0548 87.2197,67.3881 86,66.5C 84.9701,66.8361 84.4701,67.5028 84.5,68.5C 77.5536,59.8769 70.5536,51.2102 63.5,42.5C 66.4745,41.712 69.3078,41.3787 72,41.5C 78.0048,50.3291 84.1714,58.9957 90.5,67.5C 93.1756,66.1622 95.8422,64.8289 98.5,63.5C 95.702,53.7726 92.702,44.1059 89.5,34.5C 90.9215,31.0779 93.2549,28.7445 96.5,27.5C 98.3937,36.4682 100.227,45.4682 102,54.5C 102.417,57.422 103.417,60.0887 105,62.5C 105.692,61.9747 106.192,61.3081 106.5,60.5C 103.935,48.3788 101.602,36.2121 99.5,24C 101.852,20.1447 104.352,16.3113 107,12.5C 108.049,11.4829 109.216,11.3162 110.5,12C 113.333,14.8333 116.167,17.6667 119,20.5C 119.136,33.1836 118.636,45.8503 117.5,58.5C 117.618,61.5651 118.618,62.0651 120.5,60C 121.347,49.0316 122.513,37.8649 124,26.5C 124.414,26.0426 124.914,25.7093 125.5,25.5C 126.815,27.3159 128.315,28.9825 130,30.5C 129.484,40.6002 127.984,50.6002 125.5,60.5C 125.543,61.4164 125.876,62.0831 126.5,62.5 Z"/></g>
<g><path style="opacity:1" fill="#f9d328" d="M 179.5,61.5 C 177.57,65.1002 174.903,68.1002 171.5,70.5C 170.833,70.5 170.5,70.8333 170.5,71.5C 169.833,71.5 169.5,71.8333 169.5,72.5C 169.167,72.5 168.833,72.5 168.5,72.5C 167.833,72.5 167.5,72.8333 167.5,73.5C 166.833,73.5 166.5,73.8333 166.5,74.5C 165.167,74.5 164.5,75.1667 164.5,76.5C 161.06,78.0549 157.727,79.8882 154.5,82C 153.402,82.7697 153.402,83.603 154.5,84.5C 154.5,85.1667 154.5,85.8333 154.5,86.5C 154.167,86.5 153.833,86.5 153.5,86.5C 150.029,82.6059 148.195,77.9392 148,72.5C 147.167,71.6667 146.333,70.8333 145.5,70C 146.337,68.9887 146.67,67.8221 146.5,66.5C 143.708,68.5598 140.541,70.2264 137,71.5C 135.238,70.4091 133.404,69.4091 131.5,68.5C 132.376,67.7492 133.376,67.2492 134.5,67C 132.26,66.023 129.927,65.523 127.5,65.5C 127.5,64.5 127.5,63.5 127.5,62.5C 129.922,63.4713 132.256,64.3047 134.5,65C 138.62,55.9725 143.12,47.1391 148,38.5C 150.951,36.9239 154.117,36.2572 157.5,36.5C 151.66,47.0351 145.327,57.3684 138.5,67.5C 139.5,68.8333 140.5,68.8333 141.5,67.5C 148.859,57.7655 155.859,47.7655 162.5,37.5C 163.376,36.7492 164.376,36.2492 165.5,36C 169.222,35.7618 172.889,35.2618 176.5,34.5C 178.167,34.8333 179.167,35.8333 179.5,37.5C 178.79,41.8035 178.29,46.1368 178,50.5C 169.741,58.3626 161.241,65.8626 152.5,73C 149.665,74.4399 149.165,76.2733 151,78.5C 159.709,70.6271 168.876,63.2938 178.5,56.5C 179.452,58.0453 179.785,59.712 179.5,61.5 Z"/></g>
<g><path style="opacity:1" fill="#2408cb" d="M 45.5,66.5 C 49.0701,71.7419 53.4035,76.4086 58.5,80.5C 61.5,83.8333 64.5,87.1667 67.5,90.5C 65.8828,89.962 64.2161,89.6287 62.5,89.5C 62.3491,86.2819 61.5158,85.9485 60,88.5C 59.6121,87.572 58.9454,86.9054 58,86.5C 53.0377,88.4583 49.8711,91.9583 48.5,97C 49.5174,99.7866 49.6841,102.62 49,105.5C 48.035,100.507 47.2017,95.5075 46.5,90.5C 43.7087,87.7265 41.8754,88.3932 41,92.5C 39.8869,91.2889 38.7202,91.2889 37.5,92.5C 35.4759,90.6419 33.3092,88.9752 31,87.5C 30.3162,88.7839 30.4829,89.9505 31.5,91C 29.2153,94.1045 28.8819,97.4378 30.5,101C 29.9555,104.013 28.7888,104.179 27,101.5C 25.4222,102.711 25.2555,104.045 26.5,105.5C 28.3154,105.354 30.3154,105.188 32.5,105C 30.275,106.931 29.6083,109.097 30.5,111.5C 23.6383,104.793 17.4716,97.4601 12,89.5C 11.5034,87.1902 11.3367,84.8568 11.5,82.5C 13.0431,76.7199 14.0431,70.7199 14.5,64.5C 14.4095,61.8478 15.0762,59.5145 16.5,57.5C 18.3803,55.2446 19.3803,52.5779 19.5,49.5C 21.2549,48.0382 22.5882,46.2049 23.5,44C 24.8721,43.5983 26.2054,43.0983 27.5,42.5C 29.6057,44.2686 31.2724,46.4353 32.5,49C 31.5765,50.8114 30.7431,50.6447 30,48.5C 29.5065,50.1341 29.3398,51.8008 29.5,53.5C 30.8221,53.33 31.9887,53.6634 33,54.5C 33.3333,53.8333 33.6667,53.1667 34,52.5C 35.6501,53.8908 36.1501,55.3908 35.5,57C 36.8905,58.02 38.3905,58.8534 40,59.5C 40.7203,61.1124 40.5536,62.6124 39.5,64C 41.4205,65.1223 43.4205,65.9556 45.5,66.5 Z"/></g>
<g><path style="opacity:0.098" fill="#796cc5" d="M 19.5,49.5 C 19.3803,52.5779 18.3803,55.2446 16.5,57.5C 16.4152,54.3511 17.4152,51.6845 19.5,49.5 Z"/></g>
<g><path style="opacity:1" fill="#5035c3" d="M 44.5,64.5 C 44.8333,65.1667 45.1667,65.8333 45.5,66.5C 43.4205,65.9556 41.4205,65.1223 39.5,64C 40.5536,62.6124 40.7203,61.1124 40,59.5C 38.3905,58.8534 36.8905,58.02 35.5,57C 36.1501,55.3908 35.6501,53.8908 34,52.5C 33.6667,53.1667 33.3333,53.8333 33,54.5C 31.9887,53.6634 30.8221,53.33 29.5,53.5C 29.3398,51.8008 29.5065,50.1341 30,48.5C 30.7431,50.6447 31.5765,50.8114 32.5,49C 31.2724,46.4353 29.6057,44.2686 27.5,42.5C 26.2054,43.0983 24.8721,43.5983 23.5,44C 22.5882,46.2049 21.2549,48.0382 19.5,49.5C 20.6096,44.6142 22.7762,40.2809 26,36.5C 32.4026,45.6274 38.5693,54.9607 44.5,64.5 Z"/></g>
<g><path style="opacity:1" fill="#fbd11b" d="M 84.5,68.5 C 84.4701,67.5028 84.9701,66.8361 86,66.5C 87.2197,67.3881 88.5531,68.0548 90,68.5C 92.8748,67.6473 95.7081,66.6473 98.5,65.5C 99.3236,62.2152 99.8236,58.8818 100,55.5C 101.289,58.3508 101.789,61.3508 101.5,64.5C 103.451,64.2267 104.951,64.8934 106,66.5C 107.694,64.4729 109.694,62.8062 112,61.5C 113.257,61.8499 113.591,62.5165 113,63.5C 111.745,64.2106 110.579,65.044 109.5,66C 112.266,66.3384 114.933,65.8384 117.5,64.5C 119.246,64.9709 120.913,65.6376 122.5,66.5C 124.848,66.1517 126.182,64.8184 126.5,62.5C 126.833,62.5 127.167,62.5 127.5,62.5C 127.5,63.5 127.5,64.5 127.5,65.5C 129.927,65.523 132.26,66.023 134.5,67C 133.376,67.2492 132.376,67.7492 131.5,68.5C 133.404,69.4091 135.238,70.4091 137,71.5C 140.541,70.2264 143.708,68.5598 146.5,66.5C 146.67,67.8221 146.337,68.9887 145.5,70C 146.333,70.8333 147.167,71.6667 148,72.5C 148.195,77.9392 150.029,82.6059 153.5,86.5C 151.861,87.4725 150.527,88.8058 149.5,90.5C 141.324,95.7548 132.991,100.755 124.5,105.5C 117.118,108.601 109.618,111.601 102,114.5C 100.97,114.836 100.47,115.503 100.5,116.5C 94.5818,113.254 88.9151,109.587 83.5,105.5C 79.1667,101.5 74.8333,97.5 70.5,93.5C 71.8333,93.1667 71.8333,92.8333 70.5,92.5C 72.1128,91.1619 72.6128,89.4952 72,87.5C 67.6102,84.941 63.1102,82.6076 58.5,80.5C 53.4035,76.4086 49.0701,71.7419 45.5,66.5C 45.1667,65.8333 44.8333,65.1667 44.5,64.5C 54.3992,69.7901 64.0659,75.6235 73.5,82C 74.635,82.7494 75.635,82.5827 76.5,81.5C 65.7938,73.3898 54.9604,65.3898 44,57.5C 43.4992,52.4918 42.9992,47.4918 42.5,42.5C 47.5111,42.3341 52.5111,42.5007 57.5,43C 66.7322,52.5608 75.5656,62.3941 84,72.5C 85.7683,71.3181 85.9349,69.9848 84.5,68.5 Z"/></g>
<g><path style="opacity:1" fill="#ae130c" d="M 204.5,90.5 C 202.871,91.6253 201.371,92.9586 200,94.5C 198.539,93.1175 197.706,93.4508 197.5,95.5C 196.522,95.189 195.855,94.5223 195.5,93.5C 196.833,92.5 198.167,91.5 199.5,90.5C 199,90.1667 198.5,89.8333 198,89.5C 196.05,90.2825 194.217,91.2825 192.5,92.5C 190.833,92.1667 189.833,91.1667 189.5,89.5C 190.331,86.6629 191.998,84.4962 194.5,83C 192.888,82.2797 191.388,82.4464 190,83.5C 189.25,82.8742 188.416,82.3742 187.5,82C 187.833,81.6667 188.167,81.3333 188.5,81C 186.721,81.9791 185.055,81.6458 183.5,80C 183.957,79.586 184.291,79.086 184.5,78.5C 180.511,76.0855 176.178,74.7522 171.5,74.5C 171.103,73.475 170.437,73.3083 169.5,74C 167.559,76.4536 165.225,78.287 162.5,79.5C 163.167,78.5 163.833,77.5 164.5,76.5C 165.5,76.1667 166.167,75.5 166.5,74.5C 167.167,74.5 167.5,74.1667 167.5,73.5C 168.167,73.5 168.5,73.1667 168.5,72.5C 168.833,72.5 169.167,72.5 169.5,72.5C 170.167,72.5 170.5,72.1667 170.5,71.5C 171.167,71.5 171.5,71.1667 171.5,70.5C 174.903,68.1002 177.57,65.1002 179.5,61.5C 187.532,53.4646 194.865,44.7979 201.5,35.5C 202.274,34.2888 203.107,34.2888 204,35.5C 211.176,46.3559 216.01,58.1892 218.5,71C 215.623,78.7218 210.956,85.2218 204.5,90.5 Z"/></g>
<g><path style="opacity:0.176" fill="#766fcf" d="M 14.5,64.5 C 14.0431,70.7199 13.0431,76.7199 11.5,82.5C 11.3996,76.1803 12.3996,70.1803 14.5,64.5 Z"/></g>
<g><path style="opacity:0.702" fill="#c16b6d" d="M 217.5,115.5 C 219.497,104.554 219.831,93.5542 218.5,82.5C 217.148,83.5244 215.815,84.5244 214.5,85.5C 215.713,82.7746 217.546,80.4412 220,78.5C 220.667,87.8333 220.667,97.1667 220,106.5C 219.594,109.742 218.761,112.742 217.5,115.5 Z"/></g>
<g><path style="opacity:0.973" fill="#b36661" d="M 214.5,85.5 C 211.954,90.7186 208.287,95.0519 203.5,98.5C 206.798,93.8677 210.464,89.5344 214.5,85.5 Z"/></g>
<g><path style="opacity:1" fill="#be0e09" d="M 171.5,74.5 C 176.178,74.7522 180.511,76.0855 184.5,78.5C 184.291,79.086 183.957,79.586 183.5,80C 185.055,81.6458 186.721,81.9791 188.5,81C 188.167,81.3333 187.833,81.6667 187.5,82C 188.416,82.3742 189.25,82.8742 190,83.5C 191.388,82.4464 192.888,82.2797 194.5,83C 191.998,84.4962 190.331,86.6629 189.5,89.5C 189.833,91.1667 190.833,92.1667 192.5,92.5C 194.217,91.2825 196.05,90.2825 198,89.5C 198.5,89.8333 199,90.1667 199.5,90.5C 198.167,91.5 196.833,92.5 195.5,93.5C 195.855,94.5223 196.522,95.189 197.5,95.5C 196.458,96.7911 195.292,96.7911 194,95.5C 193.535,96.9308 192.701,98.0975 191.5,99C 192.308,99.3076 192.975,99.8076 193.5,100.5C 191.994,101.747 190.494,101.747 189,100.5C 188.689,101.742 189.189,102.742 190.5,103.5C 188.81,105.519 187.144,107.519 185.5,109.5C 183.761,112.243 181.427,114.243 178.5,115.5C 179.908,114.089 180.908,112.423 181.5,110.5C 181.39,107.348 180.39,104.181 178.5,101C 179.516,100.481 180.182,99.6473 180.5,98.5C 179.696,96.864 178.696,95.364 177.5,94C 178.079,92.092 178.079,90.4253 177.5,89C 174.456,88.6411 174.122,87.9745 176.5,87C 175.115,84.4799 173.449,82.1465 171.5,80C 171.759,78.7387 172.426,77.7387 173.5,77C 171.915,76.9152 170.582,76.7486 169.5,76.5C 169.855,75.4777 170.522,74.811 171.5,74.5 Z"/></g>
<g><path style="opacity:1" fill="#be483a" d="M 204.5,90.5 C 199.167,97.8333 192.833,104.167 185.5,109.5C 187.144,107.519 188.81,105.519 190.5,103.5C 189.189,102.742 188.689,101.742 189,100.5C 190.494,101.747 191.994,101.747 193.5,100.5C 192.975,99.8076 192.308,99.3076 191.5,99C 192.701,98.0975 193.535,96.9308 194,95.5C 195.292,96.7911 196.458,96.7911 197.5,95.5C 197.706,93.4508 198.539,93.1175 200,94.5C 201.371,92.9586 202.871,91.6253 204.5,90.5 Z"/></g>
<g><path style="opacity:1" fill="#dc190e" d="M 171.5,74.5 C 170.522,74.811 169.855,75.4777 169.5,76.5C 170.582,76.7486 171.915,76.9152 173.5,77C 172.426,77.7387 171.759,78.7387 171.5,80C 173.449,82.1465 175.115,84.4799 176.5,87C 174.122,87.9745 174.456,88.6411 177.5,89C 178.079,90.4253 178.079,92.092 177.5,94C 178.696,95.364 179.696,96.864 180.5,98.5C 180.182,99.6473 179.516,100.481 178.5,101C 180.39,104.181 181.39,107.348 181.5,110.5C 180.908,112.423 179.908,114.089 178.5,115.5C 168.921,124.065 158.254,131.065 146.5,136.5C 142.116,135.99 137.782,135.157 133.5,134C 132.944,133.617 132.611,133.117 132.5,132.5C 134.117,133.038 135.784,133.371 137.5,133.5C 138.496,133.414 139.329,133.748 140,134.5C 141.791,131.173 143.957,130.84 146.5,133.5C 143.869,135.005 144.203,135.671 147.5,135.5C 147.238,134.022 147.571,132.689 148.5,131.5C 149.768,132.428 151.101,132.595 152.5,132C 151.62,130.644 151.286,129.144 151.5,127.5C 153.869,127.851 156.203,128.018 158.5,128C 157.692,127.692 157.025,127.192 156.5,126.5C 157.866,124.18 160.199,122.18 163.5,120.5C 163.167,119.833 162.833,119.167 162.5,118.5C 164.005,117.158 164.672,115.492 164.5,113.5C 169.611,112.651 171.278,110.151 169.5,106C 170.167,105.667 170.833,105.333 171.5,105C 170.167,104 168.833,103 167.5,102C 169.318,98.2581 168.485,94.7581 165,91.5C 164.577,92.9561 163.744,93.4561 162.5,93C 162.188,90.4142 162.688,87.9142 164,85.5C 163.259,84.3595 162.425,84.3595 161.5,85.5C 160.833,84.8333 160.167,84.1667 159.5,83.5C 157.971,84.7629 156.305,85.7629 154.5,86.5C 154.5,85.8333 154.5,85.1667 154.5,84.5C 157.167,82.8333 159.833,81.1667 162.5,79.5C 165.225,78.287 167.559,76.4536 169.5,74C 170.437,73.3083 171.103,73.475 171.5,74.5 Z"/></g>
<g><path style="opacity:1" fill="#ae110b" d="M 217.5,115.5 C 208.833,126.167 199.167,135.833 188.5,144.5C 187.5,144.833 186.833,145.5 186.5,146.5C 185.833,146.5 185.167,146.5 184.5,146.5C 184.384,143.09 186.05,141.756 189.5,142.5C 189.579,141.07 189.246,139.736 188.5,138.5C 192.5,133.167 191.833,132.5 186.5,136.5C 185.378,134.956 185.711,133.623 187.5,132.5C 185.424,131.9 183.424,131.567 181.5,131.5C 185.29,129.338 185.29,127.005 181.5,124.5C 179.868,125.297 178.368,126.297 177,127.5C 175.174,126.327 173.341,126.327 171.5,127.5C 174.208,124.791 177.208,122.458 180.5,120.5C 188.79,115.21 195.79,108.544 201.5,100.5C 201.833,99.5 202.5,98.8333 203.5,98.5C 208.287,95.0519 211.954,90.7186 214.5,85.5C 215.815,84.5244 217.148,83.5244 218.5,82.5C 219.831,93.5542 219.497,104.554 217.5,115.5 Z"/></g>
<g><path style="opacity:0.933" fill="#b64f4e" d="M 201.5,100.5 C 195.79,108.544 188.79,115.21 180.5,120.5C 187.474,113.861 194.474,107.194 201.5,100.5 Z"/></g>
<g><path style="opacity:0.325" fill="#705fce" d="M 18.5,105.5 C 16.8712,104.375 15.3712,103.041 14,101.5C 13.6117,106.511 13.7784,111.511 14.5,116.5C 11.8879,110.124 11.2212,103.458 12.5,96.5C 14.5517,99.5355 16.5517,102.536 18.5,105.5 Z"/></g>
<g><path style="opacity:1" fill="#f7650f" d="M 124.5,105.5 C 124.586,106.496 124.252,107.329 123.5,108C 124.624,108.249 125.624,108.749 126.5,109.5C 122.948,111.366 119.948,113.866 117.5,117C 118.029,118.559 118.696,120.059 119.5,121.5C 118.271,122.281 116.938,122.781 115.5,123C 118.02,124.697 120.353,126.53 122.5,128.5C 114.541,125.523 107.208,121.523 100.5,116.5C 100.47,115.503 100.97,114.836 102,114.5C 109.618,111.601 117.118,108.601 124.5,105.5 Z"/></g>
<g><path style="opacity:1" fill="#3006df" d="M 67.5,90.5 C 68.5,91.1667 69.5,91.8333 70.5,92.5C 70.5,92.8333 70.5,93.1667 70.5,93.5C 74.8333,97.5 79.1667,101.5 83.5,105.5C 83.2435,107.776 81.9102,108.943 79.5,109C 80.6226,110.044 81.9559,110.71 83.5,111C 82.0742,115.432 80.7409,119.932 79.5,124.5C 82.1667,126.167 82.1667,127.833 79.5,129.5C 80.5,130.167 81.5,130.833 82.5,131.5C 82.1543,132.696 81.6543,132.696 81,131.5C 79.5873,133.652 78.7539,135.986 78.5,138.5C 79.8221,138.67 80.9887,138.337 82,137.5C 82.6667,138.833 83.3333,140.167 84,141.5C 84.3333,140.833 84.6667,140.167 85,139.5C 85.49,140.793 85.6567,142.127 85.5,143.5C 83.549,143.773 82.049,143.107 81,141.5C 79.0088,144.58 76.1754,146.246 72.5,146.5C 66.2458,142.918 60.2458,138.918 54.5,134.5C 50.8333,131.167 47.1667,127.833 43.5,124.5C 40.4372,120.434 36.7706,117.101 32.5,114.5C 31.8333,113.5 31.1667,112.5 30.5,111.5C 29.6083,109.097 30.275,106.931 32.5,105C 30.3154,105.188 28.3154,105.354 26.5,105.5C 25.2555,104.045 25.4222,102.711 27,101.5C 28.7888,104.179 29.9555,104.013 30.5,101C 28.8819,97.4378 29.2153,94.1045 31.5,91C 30.4829,89.9505 30.3162,88.7839 31,87.5C 33.3092,88.9752 35.4759,90.6419 37.5,92.5C 38.7202,91.2889 39.8869,91.2889 41,92.5C 41.8754,88.3932 43.7087,87.7265 46.5,90.5C 47.2017,95.5075 48.035,100.507 49,105.5C 49.6841,102.62 49.5174,99.7866 48.5,97C 49.8711,91.9583 53.0377,88.4583 58,86.5C 58.9454,86.9054 59.6121,87.572 60,88.5C 61.5158,85.9485 62.3491,86.2819 62.5,89.5C 64.2161,89.6287 65.8828,89.962 67.5,90.5 Z"/></g>
<g><path style="opacity:1" fill="#3614cc" d="M 18.5,105.5 C 23.8237,111.459 29.157,117.459 34.5,123.5C 29.3595,124.488 24.0262,124.821 18.5,124.5C 17.8333,124.5 17.1667,124.5 16.5,124.5C 15.2504,121.994 14.5838,119.327 14.5,116.5C 13.7784,111.511 13.6117,106.511 14,101.5C 15.3712,103.041 16.8712,104.375 18.5,105.5 Z"/></g>
<g><path style="opacity:0.773" fill="#8170c7" d="M 32.5,114.5 C 36.7706,117.101 40.4372,120.434 43.5,124.5C 42.8333,124.5 42.1667,124.5 41.5,124.5C 38.5,121.167 35.5,117.833 32.5,114.5 Z"/></g>
<g><path style="opacity:1" fill="#f61f04" d="M 137.5,133.5 C 137.821,131.952 138.821,131.285 140.5,131.5C 139.912,127.113 139.912,123.113 140.5,119.5C 139.975,118.808 139.308,118.308 138.5,118C 141.043,114.911 141.043,111.744 138.5,108.5C 140.02,105.433 141.687,102.433 143.5,99.5C 144.198,98.1374 144.198,96.9707 143.5,96C 144.899,95.4054 146.232,95.5721 147.5,96.5C 150.116,94.9685 150.783,92.9685 149.5,90.5C 150.527,88.8058 151.861,87.4725 153.5,86.5C 153.833,86.5 154.167,86.5 154.5,86.5C 156.305,85.7629 157.971,84.7629 159.5,83.5C 160.167,84.1667 160.833,84.8333 161.5,85.5C 162.425,84.3595 163.259,84.3595 164,85.5C 162.688,87.9142 162.188,90.4142 162.5,93C 163.744,93.4561 164.577,92.9561 165,91.5C 168.485,94.7581 169.318,98.2581 167.5,102C 168.833,103 170.167,104 171.5,105C 170.833,105.333 170.167,105.667 169.5,106C 171.278,110.151 169.611,112.651 164.5,113.5C 164.672,115.492 164.005,117.158 162.5,118.5C 162.833,119.167 163.167,119.833 163.5,120.5C 160.199,122.18 157.866,124.18 156.5,126.5C 157.025,127.192 157.692,127.692 158.5,128C 156.203,128.018 153.869,127.851 151.5,127.5C 151.286,129.144 151.62,130.644 152.5,132C 151.101,132.595 149.768,132.428 148.5,131.5C 147.571,132.689 147.238,134.022 147.5,135.5C 144.203,135.671 143.869,135.005 146.5,133.5C 143.957,130.84 141.791,131.173 140,134.5C 139.329,133.748 138.496,133.414 137.5,133.5 Z"/></g>
<g><path style="opacity:1" fill="#fa4e05" d="M 149.5,90.5 C 150.783,92.9685 150.116,94.9685 147.5,96.5C 146.232,95.5721 144.899,95.4054 143.5,96C 144.198,96.9707 144.198,98.1374 143.5,99.5C 141.687,102.433 140.02,105.433 138.5,108.5C 141.043,111.744 141.043,114.911 138.5,118C 139.308,118.308 139.975,118.808 140.5,119.5C 139.912,123.113 139.912,127.113 140.5,131.5C 138.821,131.285 137.821,131.952 137.5,133.5C 135.784,133.371 134.117,133.038 132.5,132.5C 128.851,131.733 125.518,130.4 122.5,128.5C 120.353,126.53 118.02,124.697 115.5,123C 116.938,122.781 118.271,122.281 119.5,121.5C 118.696,120.059 118.029,118.559 117.5,117C 119.948,113.866 122.948,111.366 126.5,109.5C 125.624,108.749 124.624,108.249 123.5,108C 124.252,107.329 124.586,106.496 124.5,105.5C 132.991,100.755 141.324,95.7548 149.5,90.5 Z"/></g>
<g><path style="opacity:1" fill="#3906dc" d="M 83.5,105.5 C 88.9151,109.587 94.5818,113.254 100.5,116.5C 107.208,121.523 114.541,125.523 122.5,128.5C 125.518,130.4 128.851,131.733 132.5,132.5C 132.611,133.117 132.944,133.617 133.5,134C 137.782,135.157 142.116,135.99 146.5,136.5C 148.214,137.738 150.214,138.405 152.5,138.5C 152.586,139.496 152.252,140.329 151.5,141C 138.363,147.986 124.697,153.486 110.5,157.5C 105.967,159.113 101.3,160.113 96.5,160.5C 96.5,159.833 96.1667,159.5 95.5,159.5C 91.7356,158.452 88.069,157.119 84.5,155.5C 80.9261,152.034 76.9261,149.034 72.5,146.5C 76.1754,146.246 79.0088,144.58 81,141.5C 82.049,143.107 83.549,143.773 85.5,143.5C 85.6567,142.127 85.49,140.793 85,139.5C 84.6667,140.167 84.3333,140.833 84,141.5C 83.3333,140.167 82.6667,138.833 82,137.5C 80.9887,138.337 79.8221,138.67 78.5,138.5C 78.7539,135.986 79.5873,133.652 81,131.5C 81.6543,132.696 82.1543,132.696 82.5,131.5C 81.5,130.833 80.5,130.167 79.5,129.5C 82.1667,127.833 82.1667,126.167 79.5,124.5C 80.7409,119.932 82.0742,115.432 83.5,111C 81.9559,110.71 80.6226,110.044 79.5,109C 81.9102,108.943 83.2435,107.776 83.5,105.5 Z"/></g>
<g><path style="opacity:0.812" fill="#af676e" d="M 209.5,136.5 C 210.028,135.153 210.195,133.819 210,132.5C 205.297,137.035 200.797,141.702 196.5,146.5C 193.167,146.5 189.833,146.5 186.5,146.5C 186.833,145.5 187.5,144.833 188.5,144.5C 190.628,145.629 192.961,145.796 195.5,145C 201.015,139.318 206.681,133.818 212.5,128.5C 213.241,131.706 212.241,134.373 209.5,136.5 Z"/></g>
<g><path style="opacity:1" fill="#934445" d="M 16.5,124.5 C 17.1667,124.5 17.8333,124.5 18.5,124.5C 19.2871,128.925 20.9538,132.925 23.5,136.5C 24.5,136.5 25.5,136.5 26.5,136.5C 26.1924,138.924 26.5258,141.257 27.5,143.5C 30.3275,142.679 30.9942,143.679 29.5,146.5C 31.0333,148.627 32.0333,150.96 32.5,153.5C 25.3797,144.935 20.0464,135.269 16.5,124.5 Z"/></g>
<g><path style="opacity:1" fill="#ab2114" d="M 209.5,136.5 C 208.521,140.461 206.521,143.794 203.5,146.5C 201.167,146.5 198.833,146.5 196.5,146.5C 200.797,141.702 205.297,137.035 210,132.5C 210.195,133.819 210.028,135.153 209.5,136.5 Z"/></g>
<g><path style="opacity:1" fill="#9d0c11" d="M 35.5,124.5 C 37.5,124.5 39.5,124.5 41.5,124.5C 42.1667,124.5 42.8333,124.5 43.5,124.5C 47.1667,127.833 50.8333,131.167 54.5,134.5C 49.5548,133.676 46.8882,135.676 46.5,140.5C 49.5,140.833 50.8333,139.5 50.5,136.5C 54.1107,136.639 56.7774,138.306 58.5,141.5C 56.7147,141.788 55.048,141.788 53.5,141.5C 56.195,144.584 57.5283,148.25 57.5,152.5C 59.3084,152.491 60.9751,152.991 62.5,154C 59.5,154.333 56.5,154.667 53.5,155C 63.828,155.5 74.1613,155.666 84.5,155.5C 81.7131,156.477 78.7131,156.81 75.5,156.5C 63.6547,156.828 51.988,156.495 40.5,155.5C 41.7432,153.836 43.4098,152.669 45.5,152C 44.5838,151.626 43.7504,151.126 43,150.5C 42.8078,148.423 42.3078,146.423 41.5,144.5C 39.0642,145.891 38.3975,145.391 39.5,143C 38.6721,142.085 37.6721,141.419 36.5,141C 37.8765,138.46 37.2098,136.46 34.5,135C 35.5,133.333 36.8333,132 38.5,131C 36.5,131 34.5,131 32.5,131C 33.3366,129.989 33.67,128.822 33.5,127.5C 28.804,127.329 24.1373,126.829 19.5,126C 25.0158,125.827 30.3491,125.327 35.5,124.5 Z"/></g>
<g><path style="opacity:1" fill="#8a0e15" d="M 34.5,123.5 C 35.1667,123.5 35.5,123.833 35.5,124.5C 30.3491,125.327 25.0158,125.827 19.5,126C 24.1373,126.829 28.804,127.329 33.5,127.5C 33.67,128.822 33.3366,129.989 32.5,131C 34.5,131 36.5,131 38.5,131C 36.8333,132 35.5,133.333 34.5,135C 37.2098,136.46 37.8765,138.46 36.5,141C 37.6721,141.419 38.6721,142.085 39.5,143C 38.3975,145.391 39.0642,145.891 41.5,144.5C 42.3078,146.423 42.8078,148.423 43,150.5C 43.7504,151.126 44.5838,151.626 45.5,152C 43.4098,152.669 41.7432,153.836 40.5,155.5C 38.5853,155.216 36.9187,155.549 35.5,156.5C 33.8102,156.144 32.8102,155.144 32.5,153.5C 32.0333,150.96 31.0333,148.627 29.5,146.5C 30.9942,143.679 30.3275,142.679 27.5,143.5C 26.5258,141.257 26.1924,138.924 26.5,136.5C 25.5,136.5 24.5,136.5 23.5,136.5C 20.9538,132.925 19.2871,128.925 18.5,124.5C 24.0262,124.821 29.3595,124.488 34.5,123.5 Z"/></g>
<g><path style="opacity:1" fill="#cd080b" d="M 184.5,146.5 C 177.325,153.994 168.991,159.994 159.5,164.5C 159.5,163.5 159.5,162.5 159.5,161.5C 160.552,161.649 161.552,161.483 162.5,161C 161.284,159.406 159.951,157.906 158.5,156.5C 160.021,156.12 161.687,155.954 163.5,156C 165.959,154.936 168.292,153.602 170.5,152C 170.043,151.586 169.709,151.086 169.5,150.5C 171.949,148.322 173.949,145.822 175.5,143C 172.783,142.957 172.116,141.957 173.5,140C 173.095,139.055 172.428,138.388 171.5,138C 174.35,135.142 174.85,131.975 173,128.5C 170.891,129.035 170.391,130.035 171.5,131.5C 169.009,132.541 169.009,133.374 171.5,134C 170.874,134.75 170.374,135.584 170,136.5C 168.874,135.056 167.374,134.39 165.5,134.5C 163.068,134.886 160.734,135.553 158.5,136.5C 162.553,133.117 166.886,130.117 171.5,127.5C 173.341,126.327 175.174,126.327 177,127.5C 178.368,126.297 179.868,125.297 181.5,124.5C 185.29,127.005 185.29,129.338 181.5,131.5C 183.424,131.567 185.424,131.9 187.5,132.5C 185.711,133.623 185.378,134.956 186.5,136.5C 191.833,132.5 192.5,133.167 188.5,138.5C 189.246,139.736 189.579,141.07 189.5,142.5C 186.05,141.756 184.384,143.09 184.5,146.5 Z"/></g>
<g><path style="opacity:1" fill="#c20b0a" d="M 54.5,134.5 C 60.2458,138.918 66.2458,142.918 72.5,146.5C 76.9261,149.034 80.9261,152.034 84.5,155.5C 74.1613,155.666 63.828,155.5 53.5,155C 56.5,154.667 59.5,154.333 62.5,154C 60.9751,152.991 59.3084,152.491 57.5,152.5C 57.5283,148.25 56.195,144.584 53.5,141.5C 55.048,141.788 56.7147,141.788 58.5,141.5C 56.7774,138.306 54.1107,136.639 50.5,136.5C 50.8333,139.5 49.5,140.833 46.5,140.5C 46.8882,135.676 49.5548,133.676 54.5,134.5 Z"/></g>
<g><path style="opacity:1" fill="#45389d" d="M 201.5,149.5 C 195.876,158.124 188.876,165.458 180.5,171.5C 182.144,169.519 183.81,167.519 185.5,165.5C 183.238,163.492 183.738,163.159 187,164.5C 187.333,162.5 187.667,160.5 188,158.5C 188.249,159.624 188.749,160.624 189.5,161.5C 190.244,160.009 190.91,158.509 191.5,157C 192.449,156.383 193.282,156.549 194,157.5C 196.485,155.334 196.985,152.668 195.5,149.5C 197.5,149.5 199.5,149.5 201.5,149.5 Z"/></g>
<g><path style="opacity:0.737" fill="#c76165" d="M 95.5,159.5 C 96.1667,159.5 96.5,159.833 96.5,160.5C 93.4557,162.011 90.1224,162.678 86.5,162.5C 85.5084,162.672 84.8417,162.338 84.5,161.5C 88.4248,161.57 92.0915,160.903 95.5,159.5 Z"/></g>
<g><path style="opacity:1" fill="#ea1707" d="M 159.5,164.5 C 153.227,168.134 146.894,171.468 140.5,174.5C 137.63,176.794 134.297,178.128 130.5,178.5C 126.094,178.252 121.76,177.585 117.5,176.5C 115.811,174.147 113.478,172.48 110.5,171.5C 111.729,170.719 113.062,170.219 114.5,170C 110.806,169.722 107.139,169.722 103.5,170C 107.375,168.653 107.375,167.486 103.5,166.5C 104.025,165.808 104.692,165.308 105.5,165C 98.8333,164.333 98.8333,163.667 105.5,163C 106.641,162.259 106.641,161.425 105.5,160.5C 107.655,159.999 109.322,158.999 110.5,157.5C 124.697,153.486 138.363,147.986 151.5,141C 152.252,140.329 152.586,139.496 152.5,138.5C 154.5,137.833 156.5,137.167 158.5,136.5C 160.734,135.553 163.068,134.886 165.5,134.5C 167.374,134.39 168.874,135.056 170,136.5C 170.374,135.584 170.874,134.75 171.5,134C 169.009,133.374 169.009,132.541 171.5,131.5C 170.391,130.035 170.891,129.035 173,128.5C 174.85,131.975 174.35,135.142 171.5,138C 172.428,138.388 173.095,139.055 173.5,140C 172.116,141.957 172.783,142.957 175.5,143C 173.949,145.822 171.949,148.322 169.5,150.5C 169.709,151.086 170.043,151.586 170.5,152C 168.292,153.602 165.959,154.936 163.5,156C 161.687,155.954 160.021,156.12 158.5,156.5C 159.951,157.906 161.284,159.406 162.5,161C 161.552,161.483 160.552,161.649 159.5,161.5C 159.5,162.5 159.5,163.5 159.5,164.5 Z"/></g>
<g><path style="opacity:1" fill="#c90b1b" d="M 110.5,157.5 C 109.322,158.999 107.655,159.999 105.5,160.5C 106.641,161.425 106.641,162.259 105.5,163C 98.8333,163.667 98.8333,164.333 105.5,165C 104.692,165.308 104.025,165.808 103.5,166.5C 107.375,167.486 107.375,168.653 103.5,170C 107.139,169.722 110.806,169.722 114.5,170C 113.062,170.219 111.729,170.719 110.5,171.5C 113.478,172.48 115.811,174.147 117.5,176.5C 113.858,174.252 109.858,172.919 105.5,172.5C 102.064,170.519 98.3968,169.019 94.5,168C 91.5172,166.365 88.8505,164.532 86.5,162.5C 90.1224,162.678 93.4557,162.011 96.5,160.5C 101.3,160.113 105.967,159.113 110.5,157.5 Z"/></g>
<g><path style="opacity:1" fill="#1e0c9e" d="M 184.5,146.5 C 185.167,146.5 185.833,146.5 186.5,146.5C 189.833,146.5 193.167,146.5 196.5,146.5C 198.833,146.5 201.167,146.5 203.5,146.5C 203.573,148.027 202.906,149.027 201.5,149.5C 199.5,149.5 197.5,149.5 195.5,149.5C 196.985,152.668 196.485,155.334 194,157.5C 193.282,156.549 192.449,156.383 191.5,157C 190.91,158.509 190.244,160.009 189.5,161.5C 188.749,160.624 188.249,159.624 188,158.5C 187.667,160.5 187.333,162.5 187,164.5C 183.738,163.159 183.238,163.492 185.5,165.5C 183.81,167.519 182.144,169.519 180.5,171.5C 177.197,175.156 173.197,177.822 168.5,179.5C 167.306,178.223 165.64,177.556 163.5,177.5C 158.519,176.835 153.519,176.502 148.5,176.5C 145.997,175.629 143.33,174.963 140.5,174.5C 146.894,171.468 153.227,168.134 159.5,164.5C 168.991,159.994 177.325,153.994 184.5,146.5 Z"/></g>
<g><path style="opacity:1" fill="#4207dd" d="M 40.5,155.5 C 51.988,156.495 63.6547,156.828 75.5,156.5C 78.3037,158.405 81.3037,160.071 84.5,161.5C 84.8417,162.338 85.5084,162.672 86.5,162.5C 88.8505,164.532 91.5172,166.365 94.5,168C 98.3968,169.019 102.064,170.519 105.5,172.5C 104.64,174.614 102.973,175.78 100.5,176C 101.759,176.923 103.092,177.757 104.5,178.5C 103.975,179.192 103.308,179.692 102.5,180C 104.75,180.611 106.417,181.944 107.5,184C 106.167,185 106.167,186 107.5,187C 106.167,187.667 104.833,187.667 103.5,187C 101.664,185.581 99.6641,184.414 97.5,183.5C 97.8333,182.833 98.1667,182.167 98.5,181.5C 98.1543,180.304 97.6543,180.304 97,181.5C 96.1628,179.649 95.3295,177.816 94.5,176C 92.6866,175.386 92.3533,175.719 93.5,177C 92.6919,177.308 92.0253,177.808 91.5,178.5C 92.9213,181.009 94.5879,183.343 96.5,185.5C 95.5,186.333 94.5,187.167 93.5,188C 95.5,188.333 97.5,188.667 99.5,189C 95.1667,189.667 90.8333,189.667 86.5,189C 89.9037,188.986 92.5704,187.653 94.5,185C 91.5288,182.47 90.1955,179.47 90.5,176C 89.2068,175.51 87.8734,175.343 86.5,175.5C 86.3163,179.079 86.983,182.413 88.5,185.5C 85.4284,185.187 82.595,185.854 80,187.5C 75.3781,186.212 71.2115,184.045 67.5,181C 68.2052,179.443 67.5385,178.277 65.5,177.5C 63.2727,178.053 60.9393,178.053 58.5,177.5C 49.2582,172.26 41.5915,165.26 35.5,156.5C 36.9187,155.549 38.5853,155.216 40.5,155.5 Z"/></g>
<g><path style="opacity:1" fill="#4712ce" d="M 105.5,172.5 C 109.858,172.919 113.858,174.252 117.5,176.5C 121.76,177.585 126.094,178.252 130.5,178.5C 132.599,179.612 134.933,180.279 137.5,180.5C 137.047,181.458 136.381,182.292 135.5,183C 124.387,186.464 113.053,188.964 101.5,190.5C 96.5,190.5 91.5,190.5 86.5,190.5C 76.1018,188.299 66.7684,183.965 58.5,177.5C 60.9393,178.053 63.2727,178.053 65.5,177.5C 67.5385,178.277 68.2052,179.443 67.5,181C 71.2115,184.045 75.3781,186.212 80,187.5C 82.595,185.854 85.4284,185.187 88.5,185.5C 86.983,182.413 86.3163,179.079 86.5,175.5C 87.8734,175.343 89.2068,175.51 90.5,176C 90.1955,179.47 91.5288,182.47 94.5,185C 92.5704,187.653 89.9037,188.986 86.5,189C 90.8333,189.667 95.1667,189.667 99.5,189C 97.5,188.667 95.5,188.333 93.5,188C 94.5,187.167 95.5,186.333 96.5,185.5C 94.5879,183.343 92.9213,181.009 91.5,178.5C 92.0253,177.808 92.6919,177.308 93.5,177C 92.3533,175.719 92.6866,175.386 94.5,176C 95.3295,177.816 96.1628,179.649 97,181.5C 97.6543,180.304 98.1543,180.304 98.5,181.5C 98.1667,182.167 97.8333,182.833 97.5,183.5C 99.6641,184.414 101.664,185.581 103.5,187C 104.833,187.667 106.167,187.667 107.5,187C 106.167,186 106.167,185 107.5,184C 106.417,181.944 104.75,180.611 102.5,180C 103.308,179.692 103.975,179.192 104.5,178.5C 103.092,177.757 101.759,176.923 100.5,176C 102.973,175.78 104.64,174.614 105.5,172.5 Z"/></g>
<g><path style="opacity:1" fill="#c2140f" d="M 148.5,176.5 C 153.519,176.502 158.519,176.835 163.5,177.5C 165.64,177.556 167.306,178.223 168.5,179.5C 160.731,185.096 152.065,188.762 142.5,190.5C 129.26,193.517 115.927,194.017 102.5,192C 101.944,191.617 101.611,191.117 101.5,190.5C 113.053,188.964 124.387,186.464 135.5,183C 136.381,182.292 137.047,181.458 137.5,180.5C 141.167,179.167 144.833,177.833 148.5,176.5 Z"/></g>
<g><path style="opacity:0.843" fill="#ba5554" d="M 86.5,190.5 C 91.5,190.5 96.5,190.5 101.5,190.5C 101.611,191.117 101.944,191.617 102.5,192C 115.927,194.017 129.26,193.517 142.5,190.5C 140.438,191.776 138.104,192.61 135.5,193C 123.018,194.717 110.518,194.884 98,193.5C 93.9093,193.02 90.076,192.02 86.5,190.5 Z"/></g>
</svg>
